<svg xmlns="http://www.w3.org/2000/svg" version="1.1" xmlns:xlink="http://www.w3.org/1999/xlink" xmlns:svgjs="http://svgjs.dev/svgjs" width="1000" height="1000" viewBox="0 0 1000 1000"><rect width="1000" height="1000" fill="#000000"></rect><g transform="matrix(0.7,0,0,0.7,149.57577425595537,412.10835853526686)"><svg viewBox="0 0 396 100" data-background-color="#ffffff" preserveAspectRatio="xMidYMid meet" height="252" width="1000" xmlns="http://www.w3.org/2000/svg" xmlns:xlink="http://www.w3.org/1999/xlink"><g id="tight-bounds" transform="matrix(1,0,0,1,0.2399948362404416,-0.17480642588822093)"><svg viewBox="0 0 395.52 100.34961285177643" height="100.34961285177643" width="395.52"><g><svg viewBox="0 0 566.8647445196649 143.82245563276075" height="100.34961285177643" width="395.52"><g><rect width="6.960626114902254" height="143.82245563276075" x="146.16258407255776" y="0" fill="#ffffff" opacity="1" stroke-width="0" stroke="transparent" fill-opacity="1" class="rect-o-0" data-fill-palette-color="primary" rx="1%" id="o-0" data-palette-color="#a437db"></rect></g><g transform="matrix(1,0,0,1,171.34474451966486,0.35776730256904443)"><svg viewBox="0 0 395.52000000000004 143.10692102762266" height="143.10692102762266" width="395.52000000000004"><g id="textblocktransform"><svg viewBox="0 0 395.52000000000004 143.10692102762266" height="143.10692102762266" width="395.52000000000004" id="textblock"><g><svg viewBox="0 0 395.52000000000004 77.18503504043127" height="77.18503504043127" width="395.52000000000004"><g transform="matrix(1,0,0,1,0,0)"><svg width="395.52000000000004" viewBox="1.2999999523162842 -35.599998474121094 185.489990234375 36.19999694824219" height="77.18503504043127" data-palette-color="#a437db"><path d="M6.9 0L1.3 0 14.2-35 20-35 32.8 0 27.2 0 24.2-8.55 9.9-8.55 6.9 0ZM17.05-28.7L11.4-12.75 22.7-12.75 17.05-28.7ZM43 0L37.7 0 37.7-35 43.95-35 55.8-11.7 67.6-35 73.85-35 73.85 0 68.55 0 68.55-25.85 57.85-5 53.75-5 43-25.8 43 0ZM86.25 0L80.95 0 80.95-35 86.25-35 86.25 0ZM108.94 0.6L108.94 0.6Q103.74 0.6 99.97-1.68 96.19-3.95 94.14-8.03 92.09-12.1 92.09-17.45L92.09-17.45Q92.09-22.85 94.14-26.93 96.19-31 99.97-33.3 103.74-35.6 108.94-35.6L108.94-35.6Q115.09-35.6 118.99-32.6 122.89-29.6 123.94-24.2L123.94-24.2 118.04-24.2Q117.34-27.25 115.04-29.05 112.74-30.85 108.89-30.85L108.89-30.85Q103.64-30.85 100.59-27.28 97.54-23.7 97.54-17.45L97.54-17.45Q97.54-11.25 100.59-7.7 103.64-4.15 108.89-4.15L108.89-4.15Q112.74-4.15 115.04-5.85 117.34-7.55 118.04-10.5L118.04-10.5 123.94-10.5Q122.89-5.3 118.99-2.35 115.09 0.6 108.94 0.6ZM142.89 0.6L142.89 0.6Q139.14 0.6 136.12-0.88 133.09-2.35 131.32-5.4 129.54-8.45 129.54-13.15L129.54-13.15 129.54-35 134.84-35 134.84-13.1Q134.84-8.5 137.04-6.35 139.24-4.2 142.99-4.2L142.99-4.2Q146.69-4.2 148.89-6.35 151.09-8.5 151.09-13.1L151.09-13.1 151.09-35 156.39-35 156.39-13.15Q156.39-8.45 154.57-5.4 152.74-2.35 149.67-0.88 146.59 0.6 142.89 0.6ZM174.74 0.6L174.74 0.6Q170.89 0.6 167.99-0.75 165.09-2.1 163.46-4.6 161.84-7.1 161.79-10.55L161.79-10.55 167.39-10.55Q167.44-7.75 169.34-5.8 171.24-3.85 174.69-3.85L174.69-3.85Q177.74-3.85 179.46-5.33 181.19-6.8 181.19-9.1L181.19-9.1Q181.19-10.95 180.36-12.1 179.54-13.25 178.11-14 176.69-14.75 174.84-15.35 172.99-15.95 170.94-16.65L170.94-16.65Q166.89-18 164.86-20.15 162.84-22.3 162.84-25.8L162.84-25.8Q162.79-28.75 164.21-30.95 165.64-33.15 168.21-34.38 170.79-35.6 174.24-35.6L174.24-35.6Q177.64-35.6 180.21-34.35 182.79-33.1 184.24-30.88 185.69-28.65 185.74-25.7L185.74-25.7 180.14-25.7Q180.14-27.05 179.44-28.28 178.74-29.5 177.39-30.3 176.04-31.1 174.09-31.1L174.09-31.1Q171.59-31.15 169.96-29.85 168.34-28.55 168.34-26.25L168.34-26.25Q168.34-24.2 169.54-23.1 170.74-22 172.84-21.28 174.94-20.55 177.64-19.6L177.64-19.6Q180.24-18.75 182.29-17.55 184.34-16.35 185.56-14.4 186.79-12.45 186.79-9.45L186.79-9.45Q186.79-6.8 185.44-4.53 184.09-2.25 181.39-0.83 178.69 0.6 174.74 0.6Z" opacity="1" transform="matrix(1,0,0,1,0,0)" fill="#ffffff" class="wordmark-text-0" data-fill-palette-color="primary" id="text-0"></path></svg></g></svg></g><g transform="matrix(1,0,0,1,0,95.40656937263613)"><svg viewBox="0 0 149.03171366003144 47.70035165498653" height="47.70035165498653" width="149.03171366003144"><g transform="matrix(1,0,0,1,0,0)"><svg width="149.03171366003144" viewBox="3.25 -36.040000915527344 114.0999984741211 36.53000259399414" height="47.70035165498653" data-palette-color="#b19dd0"><path d="M3.25-26.42L7.3-26.42 7.4-23.97Q9.81-26.9 13.77-26.9L13.77-26.9Q18.19-26.9 19.95-23.07L19.95-23.07Q22.44-26.9 26.88-26.9L26.88-26.9Q34.18-26.9 34.35-17.8L34.35-17.8 34.35 0 30.05 0 30.05-17.38Q30.05-20.26 29.03-21.67 28-23.07 25.56-23.07L25.56-23.07Q23.61-23.07 22.39-21.56 21.17-20.04 20.97-17.7L20.97-17.7 20.97 0 16.63 0 16.63-17.58Q16.55-23.07 12.16-23.07L12.16-23.07Q8.89-23.07 7.54-19.8L7.54-19.8 7.54 0 3.25 0 3.25-26.42ZM54.42 0L54.32-2.32Q52.17 0.49 48.04 0.49L48.04 0.49Q44.46 0.49 42.62-1.99 40.79-4.47 40.77-9.2L40.77-9.2 40.77-26.42 45.07-26.42 45.07-9.52Q45.07-3.34 48.78-3.34L48.78-3.34Q52.71-3.34 54.2-6.86L54.2-6.86 54.2-26.42 58.52-26.42 58.52 0 54.42 0ZM77.85-6.76L77.85-6.76Q77.85-8.15 76.8-9.16 75.75-10.16 72.75-11.5L72.75-11.5Q69.26-12.94 67.83-13.96 66.4-14.99 65.69-16.3 64.99-17.6 64.99-19.41L64.99-19.41Q64.99-22.63 67.34-24.77 69.7-26.9 73.36-26.9L73.36-26.9Q77.22-26.9 79.56-24.66 81.9-22.41 81.9-18.9L81.9-18.9 77.61-18.9Q77.61-20.68 76.41-21.94 75.21-23.19 73.36-23.19L73.36-23.19Q71.45-23.19 70.37-22.2 69.28-21.22 69.28-19.56L69.28-19.56Q69.28-18.24 70.08-17.43 70.87-16.63 73.9-15.31L73.9-15.31Q78.71-13.43 80.44-11.63 82.17-9.84 82.17-7.08L82.17-7.08Q82.17-3.64 79.8-1.57 77.44 0.49 73.46 0.49L73.46 0.49Q69.33 0.49 66.77-1.88 64.2-4.25 64.2-7.89L64.2-7.89 68.55-7.89Q68.62-5.69 69.89-4.44 71.16-3.2 73.46-3.2L73.46-3.2Q75.61-3.2 76.73-4.16 77.85-5.13 77.85-6.76ZM92.45-26.42L92.45 0 88.13 0 88.13-26.42 92.45-26.42ZM92.79-33.42L92.79-33.42Q92.79-32.32 92.18-31.59 91.57-30.86 90.32-30.86L90.32-30.86Q89.1-30.86 88.49-31.59 87.88-32.32 87.88-33.42 87.88-34.52 88.49-35.28 89.1-36.04 90.32-36.04 91.55-36.04 92.17-35.27 92.79-34.5 92.79-33.42ZM108.41-3.2L108.41-3.2Q110.56-3.2 111.86-4.53 113.15-5.86 113.27-8.33L113.27-8.33 117.35-8.33Q117.2-4.52 114.65-2.01 112.1 0.49 108.41 0.49L108.41 0.49Q103.51 0.49 100.93-2.6 98.35-5.69 98.35-11.79L98.35-11.79 98.35-14.7Q98.35-20.68 100.92-23.79 103.48-26.9 108.39-26.9L108.39-26.9Q112.44-26.9 114.82-24.34 117.2-21.78 117.35-17.33L117.35-17.33 113.27-17.33Q113.12-20.26 111.87-21.73 110.61-23.19 108.39-23.19L108.39-23.19Q105.51-23.19 104.12-21.3 102.72-19.41 102.68-15.09L102.68-15.09 102.68-11.72Q102.68-7.06 104.05-5.13 105.43-3.2 108.41-3.2Z" opacity="1" transform="matrix(1,0,0,1,0,0)" fill="#ffffff" class="slogan-text-1" data-fill-palette-color="secondary" id="text-1"></path></svg></g></svg></g></svg></g></svg></g><g transform="matrix(1,0,0,1,0,0.35776730256904443)"><svg viewBox="0 0 127.9410497403529 143.10692102762266" height="143.10692102762266" width="127.9410497403529"><g><svg xmlns="http://www.w3.org/2000/svg" xmlns:xlink="http://www.w3.org/1999/xlink" version="1.1" x="0" y="0" viewBox="18.134002685546875 19.195999145507812 56.11164093017578 62.76300048828125" enable-background="new 0 0 100 100" xml:space="preserve" height="143.10692102762266" width="127.9410497403529" class="icon-icon-0" data-fill-palette-color="accent" id="icon-0"><path fill="#ffffff" d="M74.245 21.972c0-1.518-1.231-2.749-2.75-2.749l-36.412-0.027c-1.519 0-2.748 1.231-2.748 2.749v37.964c-0.949-0.263-1.947-0.399-2.979-0.399-6.198 0-11.222 5.024-11.222 11.223 0 6.199 5.024 11.226 11.222 11.226 6.046 0 11.215-4.677 11.215-10.769 0.007-0.073 0.022-30.853 0.022-30.853 0.01-0.791 0.651-1.429 1.445-1.429l-0.001-0.001 22.602 0.01C65.398 38.962 66 39.585 66 40.355l0.005-0.017v17.051c-0.948-0.262-1.946-0.397-2.978-0.397-6.198 0-11.226 5.022-11.226 11.223 0 6.198 5.025 11.226 11.226 11.226 6.045 0 10.974-4.78 11.214-10.769C74.248 68.598 74.245 21.972 74.245 21.972z" data-fill-palette-color="accent"></path></svg></g></svg></g></svg></g><defs></defs></svg><rect width="395.52" height="100.34961285177643" fill="none" stroke="none" visibility="hidden"></rect></g></svg></g></svg>